{"title":"The.Last.Station.2009.DvDRiP.XViD.AC3(5.1).Optional MultiSub.Zen","uid":5794189,"size":1508696613,"categoryP":"video","categoryS":"movies","magnet":"?xt=urn:btih:596b945b67f6607848f9741a6ceead1c34d0021c&amp;dn=The.Last.Station.2009.DvDRiP.XViD.AC3%285.1%29.Optional+MultiSub.Zen&amp;tr=udp%3A%2F%2Ftracker.openbittorrent.com%3A80&amp;tr=udp%3A%2F%2Fopen.demonii.com%3A1337&amp;tr=udp%3A%2F%2Ftracker.coppersurfer.tk%3A6969&amp;tr=udp%3A%2F%2Fexodus.desync.com%3A6969","seeders":2,"leechers":0,"uploader":"Zen_Bud","files":-1,"time":1282982329,"description":"\nComplete name                    : The Last Station.avi\nFormat                           : AVI\nFile size                        : 1.37 GiB\nDuration                         : 1h 48mn\nOverall bit rate                 : 1 814 Kbps\n\nVideo\n\nFormat                           : MPEG-4 Visual\nCodec ID/Hint                    : XviD\nDuration                         : 1h 48mn\nBit rate                         : 1 355 Kbps\nWidth                            : 718 pixels\nHeight                           : 436 pixels\nDisplay aspect ratio             : 2.35:1\nStream size                      : 1.02 GiB (75%)\nWriting library                  : XviD 1.1.2 (UTC 2006-11-01)\n\nAudio\n\nFormat                           : AC-3\nDuration                         : 1h 48mn\nBit rate                         : 448 Kbps\nChannel(s)                       : 6 channels\nChannel positions                : Front: L C R, Side: L R, LFE\nSampling rate                    : 48.0 KHz\nBit depth                        : 16 bits\nStream size                      : 346 MiB (25%)\n\n\n\nText #1\nLanguage                         : English\n\nText #2\nLanguage                         : Italian\n\nText #3\nLanguage                         : Danish\n\nText #4\nLanguage                         : Finnish\n\nText #5\nLanguage                         : Icelandic\n\nText #6\nLanguage                         : Norwegian","torrent":{"xt":"urn:btih:596b945b67f6607848f9741a6ceead1c34d0021c","amp;dn":"The.Last.Station.2009.DvDRiP.XViD.AC3%285.1%29.Optional+MultiSub.Zen","amp;tr":["udp%3A%2F%2Ftracker.openbittorrent.com%3A80","udp%3A%2F%2Fopen.demonii.com%3A1337","udp%3A%2F%2Ftracker.coppersurfer.tk%3A6969","udp%3A%2F%2Fexodus.desync.com%3A6969"],"infoHash":"596b945b67f6607848f9741a6ceead1c34d0021c","infoHashBuffer":{"type":"Buffer","data":[89,107,148,91,103,246,96,120,72,249,116,26,108,238,173,28,52,208,2,28]},"announce":[],"urlList":[]}}